<?xml version="1.0" encoding="UTF-8" standalone="no" ?>
<!DOCTYPE svg PUBLIC "-//W3C//DTD SVG 1.1//EN" "http://www.w3.org/Graphics/SVG/1.1/DTD/svg11.dtd">
<svg xmlns="http://www.w3.org/2000/svg" xmlns:xlink="http://www.w3.org/1999/xlink" version="1.1" width="1080" height="1080" viewBox="0 0 1080 1080" xml:space="preserve">
<desc>Created with Fabric.js 5.2.4</desc>
<defs>
</defs>
<g transform="matrix(1 0 0 1 540 540)" id="402b4add-0ba1-4f2e-8f53-45ff42116bb1"  >
<rect style="stroke: none; stroke-width: 1; stroke-dasharray: none; stroke-linecap: butt; stroke-dashoffset: 0; stroke-linejoin: miter; stroke-miterlimit: 4; fill: rgb(255,255,255); fill-rule: nonzero; opacity: 1; visibility: hidden;" vector-effect="non-scaling-stroke"  x="-540" y="-540" rx="0" ry="0" width="1080" height="1080" />
</g>
<g transform="matrix(1 0 0 1 540 540)" id="8e31b27e-995d-4930-8960-f07c993c7a7e"  >
</g>
<g transform="matrix(1 0 0 1 540 540)" id="bbf5c187-90df-4f78-8be9-fca9844e9263"  >
<path style="stroke: rgb(0,0,0); stroke-width: 0; stroke-dasharray: none; stroke-linecap: butt; stroke-dashoffset: 0; stroke-linejoin: miter; stroke-miterlimit: 4; fill: rgb(245,222,179); fill-rule: nonzero; opacity: 1;" vector-effect="non-scaling-stroke"  transform=" translate(-224, -256)" d="M 400 32 L 48 32 C 21.490332008121918 32 0 53.49033200812192 0 80 L 0 432 C 0 458.5096679918781 21.490332008121918 480 48 480 L 185.3 480 L 185.3 327.7 L 122.30000000000001 327.7 L 122.30000000000001 256 L 185.3 256 L 185.3 201.4 C 185.3 139.2 222.3 104.9 279 104.9 C 306.1 104.9 334.5 109.7 334.5 109.7 L 334.5 170.7 L 303.2 170.7 C 272.4 170.7 262.8 189.79999999999998 262.8 209.39999999999998 L 262.8 256 L 331.6 256 L 320.6 327.7 L 262.8 327.7 L 262.8 480 L 400 480 C 426.5096679918781 480 448 458.5096679918781 448 432 L 448 80 C 448 53.49033200812192 426.5096679918781 32 400 32 z" stroke-linecap="round" />
</g>
<g transform="matrix(NaN NaN NaN NaN 0 0)"  >
<g style=""   >
</g>
</g>
<g transform="matrix(NaN NaN NaN NaN 0 0)"  >
<g style=""   >
</g>
</g>
</svg>