<?xml version="1.0" encoding="UTF-8" standalone="no" ?>
<!DOCTYPE svg PUBLIC "-//W3C//DTD SVG 1.1//EN" "http://www.w3.org/Graphics/SVG/1.1/DTD/svg11.dtd">
<svg xmlns="http://www.w3.org/2000/svg" xmlns:xlink="http://www.w3.org/1999/xlink" version="1.1" width="1080" height="1080" viewBox="0 0 1080 1080" xml:space="preserve">
<desc>Created with Fabric.js 5.2.4</desc>
<defs>
</defs>
<g transform="matrix(1 0 0 1 540 540)" id="21eef7f0-4429-40e9-9179-79245ea581e8"  >
<rect style="stroke: none; stroke-width: 1; stroke-dasharray: none; stroke-linecap: butt; stroke-dashoffset: 0; stroke-linejoin: miter; stroke-miterlimit: 4; fill: rgb(255,255,255); fill-rule: nonzero; opacity: 1; visibility: hidden;" vector-effect="non-scaling-stroke"  x="-540" y="-540" rx="0" ry="0" width="1080" height="1080" />
</g>
<g transform="matrix(1 0 0 1 540 540)" id="7c65f3fe-86d2-4b34-849f-00f57a1392de"  >
</g>
<g transform="matrix(1 0 0 1 540 540)" id="3e31514e-dd33-4813-b74e-17a3e6bae815"  >
<path style="stroke: rgb(0,0,0); stroke-width: 0; stroke-dasharray: none; stroke-linecap: butt; stroke-dashoffset: 0; stroke-linejoin: miter; stroke-miterlimit: 4; fill: rgb(245,222,179); fill-rule: nonzero; opacity: 1;" vector-effect="non-scaling-stroke"  transform=" translate(-224, -256)" d="M 64 32 C 28.7 32 0 60.7 0 96 L 0 416 C 0 451.3 28.7 480 64 480 L 384 480 C 419.3 480 448 451.3 448 416 L 448 96 C 448 60.7 419.3 32 384 32 L 64 32 z M 361.1 116 L 257.3 234.6 L 379.4 396 L 283.8 396 L 209 298.1 L 123.3 396 L 75.8 396 L 186.8 269.1 L 69.7 116 L 167.7 116 L 235.39999999999998 205.5 L 313.6 116 L 361.1 116 z M 323.3 367.6 L 153.4 142.9 L 125.1 142.9 L 296.9 367.6 L 323.2 367.6 z" stroke-linecap="round" />
</g>
<g transform="matrix(NaN NaN NaN NaN 0 0)"  >
<g style=""   >
</g>
</g>
<g transform="matrix(NaN NaN NaN NaN 0 0)"  >
<g style=""   >
</g>
</g>
</svg>